<svg xmlns="http://www.w3.org/2000/svg" viewBox="0 0 100 100" fill="none">
  <defs>
    <linearGradient id="grad" x1="0%" y1="0%" x2="100%" y2="100%">
      <stop offset="0%" style="stop-color:#00B4D8" />
      <stop offset="100%" style="stop-color:#00FF94" />
    </linearGradient>
  </defs>
  <rect width="100" height="100" rx="20" fill="#0a0f1a"/>
  <path d="M35 65L30 72.5l-2.5-8.75a14 14 0 00-9.5-9.5L9.25 51.75l8.75-2.5a14 14 0 009.5-9.5L30 31l2.5 8.75a14 14 0 009.5 9.5L50.75 51.75l-8.75 2.5a14 14 0 00-9.5 9.5z" fill="url(#grad)"/>
  <path d="M65 45l-1.5 5.25-1.5-5.25a10 10 0 00-7-7L49.75 36.5l5.25-1.5a10 10 0 007-7L63.5 22.75l1.5 5.25a10 10 0 007 7L77.25 36.5 72 38a10 10 0 00-7 7z" fill="url(#grad)" opacity="0.7"/>
  <path d="M75 60l-1 3.5-1-3.5a7 7 0 00-5-5L64.5 54l3.5-1a7 7 0 005-5L74 44.5l1 3.5a7 7 0 005 5L83.5 54 80 55a7 7 0 00-5 5z" fill="url(#grad)" opacity="0.5"/>
</svg>
